<svg width="354" height="387" viewBox="0 0 354 387" fill="none" xmlns="http://www.w3.org/2000/svg">
<g clip-path="url(#clip0_7041_1210)">
<path d="M84.1491 278.109C54.5274 249.317 71.0847 194.707 41.9831 202.816C12.2359 211.104 -21.7393 351.822 18.2105 372.788C36.5501 382.413 86.5052 379.944 51.9956 307.714C51.8988 307.514 52.1678 307.36 52.3112 307.532C111.397 378.707 118.856 281.069 119.63 288.565C135.23 439.269 217.536 379.428 193.785 351.327C130.206 276.106 176.564 196.473 147.911 179.119C106.996 154.341 98.3144 249.736 84.1527 278.109H84.1491Z" fill="#F95F2E"/>
<path d="M333.337 25.9944C321.362 13.2341 303.209 7.85911 285.96 10.844C245.519 17.8387 256.736 63.8451 228.463 72.592C153.609 95.7475 144.698 180.146 196.751 193.293C305.454 220.745 396.238 93.0314 333.34 25.9944H333.337ZM223.396 152.224C197.791 149.229 207.567 112.546 245.483 109.103C290.823 104.985 276.532 62.1323 295.04 64.0852C296.855 64.2751 298.673 64.8413 300.118 65.9521C319.788 81.0953 288.728 159.871 223.396 152.224Z" fill="#F95F2E"/>
<path d="M165.006 94.8796C168.893 89.7697 173.276 85.0326 178.081 80.6896C179.071 79.7937 178.422 78.1561 177.088 78.1776L91.35 79.4784C90.4571 79.4927 89.765 78.708 89.8941 77.8265C90.4284 74.0747 91.5437 64.561 90.787 54.7713C90.7225 53.94 91.3536 53.2197 92.1892 53.2018C101.976 52.9761 157.314 51.7506 221.778 51.3707C225.903 51.3456 229.661 48.9556 231.382 45.211C232.279 43.2652 233.24 41.0113 234.323 38.417C238.264 28.9641 243.421 16.6231 253.788 7.04489C256.521 4.51864 254.803 -0.0178638 251.088 5.2912e-05L51.0668 0.956803C33.9536 1.07147 21.0076 10.6354 21.2873 27.7351C22.2771 88.7807 27.5595 115.713 9.69331 201.871C9.37415 203.419 11.4254 204.3 12.3076 202.989C19.6843 192.002 27.807 185.344 36.8441 182.825C49.1733 179.392 57.9809 182.514 63.1987 185.735C71.0416 190.58 75.259 197.965 77.9952 206.264C78.4865 207.755 80.6489 207.532 80.8211 205.974C89.5749 125.273 77.9522 122.041 149.869 120.862C150.468 120.852 150.999 120.475 151.207 119.916C154.43 111.162 159.064 102.691 165.01 94.8724L165.006 94.8796Z" fill="#F95F2E"/>
<path d="M303.105 196.912C279.548 210.539 236.152 229.123 179.117 208.063C160.52 252.665 192.756 375.315 279.408 378.469C412.081 383.295 316.679 189.061 303.105 196.916V196.912ZM242.435 302.846C228.187 277.379 231.529 247.939 257.034 250.304C271.149 251.612 288.614 261.616 296.998 283.65C310.27 318.52 267.032 346.814 242.435 302.846Z" fill="#F95F2E"/>
</g>
<defs>
<clipPath id="clip0_7041_1210">
<rect width="354" height="387" fill="white"/>
</clipPath>
</defs>
</svg>
