<svg width="116" height="40" viewBox="0 0 116 40" fill="none" xmlns="http://www.w3.org/2000/svg">
<path d="M59.091 0.0514717C58.0633 0.194206 57.2831 0.432091 56.3315 0.888832C55.5703 1.25993 55.2944 1.45975 54.6188 2.14487C53.4008 3.36284 52.7632 4.60936 52.316 6.62663L52.0972 7.61624V19.9863V32.3564L52.316 33.346C52.7632 35.3632 53.4008 36.6097 54.6188 37.8277C55.2944 38.5128 55.5703 38.7127 56.3315 39.0838C57.3877 39.5881 58.0348 39.7784 59.2813 39.9306C61.6411 40.2161 64.1152 39.6071 65.7518 38.3511C67.2077 37.2282 68.2353 35.2966 68.673 32.8226C68.8348 31.9567 68.8443 30.9671 68.8443 19.9863C68.8443 9.00549 68.8348 8.01589 68.673 7.14998C67.8547 2.57306 65.2285 0.175175 60.8704 0.0134125C60.2329 -0.0151329 59.4336 0.00389481 59.091 0.0514717ZM61.8315 5.81782C62.6688 6.24602 63.0494 6.9121 63.2873 8.32038C63.3349 8.62487 63.373 13.6585 63.373 19.9863C63.373 26.3141 63.3349 31.3477 63.2873 31.6522C63.0494 33.0795 62.6688 33.7266 61.8124 34.1643C61.3081 34.4212 61.1463 34.4497 60.4327 34.4497C59.7761 34.4497 59.5287 34.4022 59.1671 34.2309C58.5867 33.9454 58.1204 33.4221 57.8445 32.7275L57.6161 32.166V19.9863V7.80655L57.835 7.25465C58.3488 5.99862 59.2433 5.43721 60.642 5.51333C61.1178 5.53236 61.4318 5.618 61.8315 5.81782Z" fill="#777676"/>
<path d="M0 12.0898V23.0801H3.71102H7.42203V12.0898V1.09944H3.71102H0V12.0898Z" fill="white"/>
<path d="M19.9342 5.70194C18.8209 5.95885 17.8598 6.41559 17.0795 7.04361L16.5562 7.47181V6.663V5.85419H13.1306H9.70508L9.72411 14.4371L9.75266 23.0295L13.3019 23.0581L16.8416 23.0771V18.8713C16.8416 16.5495 16.8892 14.3705 16.9368 14.0089C17.1747 12.4103 18.0691 11.5634 19.525 11.5634C20.1911 11.5634 20.7239 11.8013 21.057 12.2486C21.5423 12.9146 21.5423 12.8956 21.5803 18.1481L21.6089 23.0771H21.98H22.3511L22.0276 23.629C21.1807 25.0468 20.8096 26.4931 20.8001 28.3582C20.7906 31.1367 21.6279 33.211 23.4739 34.9809C24.6158 36.0847 25.8908 36.7888 27.6702 37.2741C28.6884 37.5596 31.6952 37.5881 32.9227 37.3217C34.5879 36.9601 36.5957 36.1799 37.4901 35.5423L37.7756 35.3425V31.6315V27.93H35.254H32.7324V30.1661V32.3927L32.2471 32.5354C30.5343 33.0493 28.8216 32.6877 27.7939 31.5934C26.9851 30.737 26.6425 29.795 26.6425 28.4057C26.6425 26.0079 27.87 24.4568 30.0491 24.1238C31.562 23.8859 32.9608 24.3807 34.1312 25.5416C34.3405 25.7605 34.5499 25.9317 34.5784 25.9317C34.664 25.9317 38.2514 22.6775 38.2514 22.6013C38.2514 22.5633 38.1657 22.4586 38.0611 22.3635C37.8803 22.1922 37.8707 22.0685 37.8707 18.4241C37.8707 16.3497 37.9183 14.3705 37.9659 14.0089C38.2038 12.4103 39.0982 11.5634 40.5541 11.5634C41.2202 11.5634 41.753 11.8013 42.0861 12.2486C42.5714 12.9146 42.5714 12.8956 42.6094 18.1576L42.638 23.0771L46.1777 23.0581L49.7175 23.0295V17.2727C49.7175 11.5444 49.7175 11.5063 49.4891 10.6309C49.1846 9.38441 48.6422 8.35674 47.8905 7.55745C47.1293 6.75815 46.4632 6.33947 45.2833 5.93031C44.4078 5.62581 44.3507 5.6163 42.7712 5.6163C41.4676 5.6163 41.0394 5.65436 40.5826 5.78758C39.6596 6.07304 38.7176 6.54881 38.1372 7.02458L37.5853 7.47181V6.663V5.85419H34.1597H30.7342V12.5626V19.2709H30.03C29.6494 19.2709 29.2022 19.2995 29.0404 19.328L28.755 19.3851L28.7169 15.4077C28.6788 11.4683 28.6693 11.4112 28.4219 10.4977C28.0984 9.27974 27.5941 8.33771 26.8424 7.54793C26.1002 6.74863 25.4246 6.33947 24.2542 5.93982C23.4263 5.65436 23.2455 5.62581 21.9324 5.60678C20.9618 5.57824 20.3243 5.6163 19.9342 5.70194Z" fill="white"/>
<path d="M102.291 29.4551V37.9238H104.708H107.134L107.163 34.5173L107.191 31.1203L107.439 30.5874C107.762 29.9118 108.21 29.6073 108.914 29.5978C109.485 29.5978 109.837 29.7977 110.141 30.321C110.322 30.6255 110.332 30.8444 110.36 34.2794L110.389 37.9238H112.815H115.242L115.213 33.5182L115.184 29.1221L114.918 28.3418C114.594 27.3903 113.976 26.5243 113.262 26.02C111.692 24.9258 109.171 24.9543 107.62 26.0676L107.144 26.4102V23.6983V20.9864H104.717H102.291V29.4551Z" fill="white"/>
<path d="M93.0615 24.364V26.1243H92.2527H91.4438V28.0274V29.9305H92.2527H93.0615V32.0429C93.0615 34.4218 93.1566 35.0117 93.6514 35.9443C93.9559 36.5152 94.6696 37.2479 95.1929 37.5143C96.2016 38.0376 97.6669 38.266 99.0181 38.1138C99.7984 38.0281 100.674 37.7902 101.026 37.5619C101.121 37.5048 101.007 37.048 100.579 35.7064C100.255 34.7263 99.9697 33.927 99.9316 33.927C99.8935 33.9365 99.7603 33.9936 99.6271 34.0697C99.2941 34.26 98.5804 34.2505 98.333 34.0412C97.9524 33.7367 97.9143 33.5273 97.9143 31.7004V29.9305H99.1038H100.293V28.0274V26.1243H99.1038H97.9143V24.364V22.6036H95.4879H93.0615V24.364Z" fill="white"/>
<path d="M48.1491 23.3152C47.2357 23.5245 46.5601 23.8195 45.894 24.3334L45.2945 24.7806V24.124V23.4579H42.6778H40.061V30.309V37.1602H42.811H45.5705L45.599 33.5633L45.6276 29.976L45.894 29.4336C46.3698 28.4631 47.2928 28.0539 48.8247 28.1395L49.6716 28.1966L49.6526 25.7036L49.624 23.2201L49.1958 23.201C48.958 23.1915 48.4917 23.2486 48.1491 23.3152Z" fill="white"/>
<path d="M70.1279 25.5252C70.1279 25.5633 70.8987 27.9517 71.8312 30.8348C72.7732 33.7085 73.6772 36.487 73.8389 36.9913L74.1339 37.9238H76.5033H78.8726L79.6434 35.5164C80.0716 34.2033 80.4617 32.9663 80.5188 32.7855C80.5759 32.6047 80.6425 32.4239 80.6805 32.3858C80.7186 32.3478 81.1278 33.5658 81.6035 35.0977L82.4504 37.8763L84.8293 37.9048L87.2081 37.9238L89.1968 31.8149C90.2911 28.4465 91.2046 25.6394 91.2236 25.5728C91.2617 25.4872 90.805 25.4586 89.1398 25.4586H86.9988L85.9616 28.751C85.3907 30.5589 84.9054 31.9862 84.8864 31.9101C84.8578 31.8435 84.4106 30.3686 83.8777 28.6463L82.9262 25.5062H80.8328H78.7489L77.7403 28.6653C77.1884 30.4066 76.7126 31.834 76.6841 31.834C76.6555 31.834 76.3415 30.8824 75.9894 29.712C75.6374 28.5511 75.1997 27.1143 75.0189 26.5243L74.6858 25.4586H72.4021C71.1556 25.4586 70.1279 25.4872 70.1279 25.5252Z" fill="white"/>
</svg>
